RWalking1_XZ.mot
version=1
datacolumns 20
datarows 46
range 0.000000 0.450000
inDegrees=yes
endheader
time	pelvis_tilt	pelvis_list	pelvis_rotation	hip_flexion_r	hip_adduction_r	hip_rotation_r	knee_angle_r	ankle_angle_r	hip_flexion_l	hip_adduction_l	hip_rotation_l	knee_angle_l	ankle_angle_l	pelvis_tx	pelvis_ty	pelvis_tz	lumbar_bending	lumbar_rotation	lumbar_extension
0.000000	-12.308670	2.965159	1.507933	6.146383	-2.835018	-4.877044	-5.224973	6.311529	8.397473	4.331812	-1.846350	-9.093323	6.307482	-1.388209	0.995261	-0.051153	-0.000000	-0.000000	0.000000
0.010000	-10.976360	2.953528	1.403442	4.640745	-2.712539	-5.489424	-5.101386	6.073357	6.644128	4.245886	-2.323791	-8.342985	5.882105	-1.388166	0.995956	-0.051086	-0.000000	-0.000000	0.000000
0.020000	-10.983675	3.129431	1.356632	4.452129	-2.887350	-5.851015	-5.049763	6.449001	6.082654	4.389489	-2.303569	-7.485094	5.758961	-1.385901	0.996250	-0.051710	-0.000000	-0.000000	0.000000
0.030000	-11.362056	3.218270	1.413019	4.775118	-3.023511	-5.814240	-5.091404	6.755492	6.307288	4.484613	-2.155255	-7.321784	5.879106	-1.384658	0.996055	-0.052132	-0.000000	-0.000000	0.000000
0.040000	-11.783591	3.307383	1.497142	5.137094	-3.169084	-5.744269	-5.160349	7.114510	6.567621	4.584002	-2.000787	-7.170648	6.035555	-1.383219	0.995782	-0.052635	-0.000000	-0.000000	0.000000
0.050000	-12.196010	3.382165	1.603025	5.493023	-3.303286	-5.644206	-5.266834	7.501879	6.817856	4.672800	-1.868680	-7.036957	6.214873	-1.381655	0.995451	-0.053199	-0.000000	-0.000000	0.000000
0.060000	-12.558113	3.429761	1.721057	5.813232	-3.408554	-5.517207	-5.425679	7.897276	7.022445	4.738462	-1.777107	-6.923932	6.406224	-1.380036	0.995074	-0.053809	-0.000000	-0.000000	0.000000
0.070000	-12.847969	3.442757	1.841923	6.088558	-3.475136	-5.368857	-5.653571	8.290681	7.160651	4.774505	-1.728151	-6.827750	6.599930	-1.378408	0.994660	-0.054461	-0.000000	-0.000000	0.000000
0.080000	-13.066251	3.421290	1.960905	6.330409	-3.503520	-5.208213	-5.965269	8.684423	7.230364	4.782536	-1.707406	-6.739435	6.786781	-1.376779	0.994210	-0.055153	-0.000000	-0.000000	0.000000
0.090000	-13.230921	3.371920	2.079649	6.563213	-3.502419	-5.048031	-6.370272	9.088223	7.245770	4.770196	-1.691548	-6.650663	6.959566	-1.375133	0.993729	-0.055882	-0.000000	-0.000000	0.000000
0.100000	-13.369365	3.304881	2.204105	6.816229	-3.484712	-4.903431	-6.871321	9.511744	7.232685	4.747502	-1.660201	-6.559373	7.115458	-1.373435	0.993224	-0.056633	-0.000000	-0.000000	0.000000
0.110000	-13.508446	3.231711	2.339568	7.115512	-3.464105	-4.789801	-7.465783	9.958429	7.220255	4.724227	-1.605920	-6.471919	7.256341	-1.371655	0.992707	-0.057386	-0.000000	-0.000000	0.000000
0.120000	-13.665266	3.163305	2.485833	7.478414	-3.452497	-4.719173	-8.150510	10.421768	7.231269	4.707902	-1.537890	-6.400854	7.386934	-1.369779	0.992200	-0.058121	-0.000000	-0.000000	0.000000
0.130000	-13.842448	3.108362	2.635679	7.912249	-3.458251	-4.695363	-8.927774	10.883997	7.275135	4.702443	-1.479385	-6.359286	7.512510	-1.367821	0.991731	-0.058816	-0.000000	-0.000000	0.000000
0.140000	-14.029116	3.072122	2.777416	8.415623	-3.485374	-4.710696	-9.807756	11.316305	7.345758	4.707593	-1.461993	-6.354477	7.636836	-1.365820	0.991329	-0.059453	-0.000000	-0.000000	0.000000
0.150000	-14.206551	3.054782	2.899992	8.981051	-3.532753	-4.747904	-10.805618	11.680535	7.425121	4.718618	-1.518558	-6.384207	7.760127	-1.363821	0.991020	-0.060020	-0.000000	-0.000000	0.000000
0.160000	-14.356087	3.049364	2.997877	9.598455	-3.592953	-4.787735	-11.935088	11.932434	7.490892	4.725594	-1.675519	-6.437158	7.876654	-1.361862	0.990815	-0.060515	-0.000000	-0.000000	0.000000
0.170000	-14.466839	3.040170	3.072130	10.260169	-3.651417	-4.817216	-13.202576	12.026404	7.525299	4.712914	-1.946590	-6.496279	7.973068	-1.359959	0.990713	-0.060955	-0.000000	-0.000000	0.000000
0.180000	-14.540133	3.004230	3.127235	10.966235	-3.687974	-4.833135	-14.605760	11.922882	7.521889	4.660787	-2.329339	-6.544344	8.030602	-1.358105	0.990698	-0.061369	-0.000000	-0.000000	0.000000
0.190000	-14.588182	2.916912	3.167740	11.726330	-3.681654	-4.839760	-16.137203	11.599713	7.487214	4.549761	-2.804290	-6.570346	8.032598	-1.356280	0.990748	-0.061800	-0.000000	-0.000000	0.000000
0.200000	-14.628841	2.759139	3.196912	12.556591	-3.616869	-4.843354	-17.788291	11.063385	7.437530	4.366478	-3.337105	-6.573448	7.973396	-1.354465	0.990832	-0.062283	-0.000000	-0.000000	0.000000
0.210000	-14.679982	2.521899	3.217196	13.472985	-3.487265	-4.849142	-19.549330	10.350224	7.392961	4.106947	-3.885494	-6.562026	7.861165	-1.352647	0.990916	-0.062835	-0.000000	-0.000000	0.000000
0.220000	-14.754486	2.206689	3.231758	14.484190	-3.295888	-4.862598	-21.408435	9.519784	7.370828	3.775832	-4.408603	-6.549290	7.715466	-1.350817	0.990967	-0.063450	-0.000000	-0.000000	0.000000
0.230000	-14.855320	1.823729	3.244690	15.586305	-3.052838	-4.889027	-23.353428	8.653751	7.378578	3.383526	-4.873142	-6.548317	7.568884	-1.348976	0.990965	-0.064101	-0.000000	-0.000000	0.000000
0.240000	-14.972056	1.388590	3.258799	16.760894	-2.770670	-4.931057	-25.374107	7.848657	7.408492	2.942165	-5.257539	-6.568096	7.468003	-1.347129	0.990908	-0.064751	-0.000000	-0.000000	0.000000
0.250000	-15.084646	0.918411	3.272742	17.980659	-2.459799	-4.989311	-27.459898	7.184266	7.440383	2.462570	-5.559327	-6.610654	7.459053	-1.345285	0.990812	-0.065361	-0.000000	-0.000000	0.000000
0.260000	-15.176060	0.430950	3.279929	19.222651	-2.128836	-5.065540	-29.593721	6.690146	7.453828	1.956095	-5.799892	-6.669911	7.564264	-1.343444	0.990705	-0.065905	-0.000000	-0.000000	0.000000
0.270000	-15.241958	-0.054192	3.271124	20.476021	-1.788989	-5.163460	-31.746148	6.346895	7.438507	1.439506	-6.015600	-6.734315	7.771810	-1.341586	0.990616	-0.066371	-0.000000	-0.000000	0.000000
0.280000	-15.288407	-0.516373	3.239612	21.735981	-1.455953	-5.285964	-33.872207	6.119876	7.393693	0.935911	-6.238449	-6.792790	8.048176	-1.339679	0.990567	-0.066767	-0.000000	-0.000000	0.000000
0.290000	-15.325480	-0.937199	3.185063	22.994365	-1.147757	-5.440336	-35.909658	5.974960	7.323531	0.470437	-6.484028	-6.839528	8.356489	-1.337679	0.990563	-0.067109	-0.000000	-0.000000	0.000000
0.300000	-15.364468	-1.302735	3.114562	24.237230	-0.883633	-5.651402	-37.780441	5.857758	7.234943	0.065756	-6.754705	-6.874561	8.664788	-1.335539	0.990595	-0.067421	-0.000000	-0.000000	0.000000
0.310000	-15.413615	-1.603476	3.041230	25.445194	-0.684246	-5.950300	-39.403171	5.695947	7.133184	-0.260373	-7.044062	-6.901074	8.949192	-1.333214	0.990641	-0.067725	-0.000000	-0.000000	0.000000
0.320000	-15.472440	-1.836008	2.979198	26.594771	-0.565838	-6.338030	-40.713802	5.440229	7.015781	-0.499726	-7.334986	-6.921909	9.198058	-1.330677	0.990675	-0.068033	-0.000000	-0.000000	0.000000
0.330000	-15.534495	-2.006913	2.936307	27.667303	-0.529528	-6.774028	-41.679249	5.082779	6.875462	-0.659789	-7.602024	-6.937639	9.411859	-1.327924	0.990680	-0.068342	-0.000000	-0.000000	0.000000
0.340000	-15.594894	-2.132408	2.910803	28.658787	-0.558751	-7.205439	-42.297073	4.637993	6.708527	-0.762636	-7.820289	-6.946722	9.595973	-1.324964	0.990643	-0.068642	-0.000000	-0.000000	0.000000
0.350000	-15.652798	-2.232325	2.893596	29.579116	-0.627249	-7.594911	-42.586135	4.127666	6.517948	-0.835711	-7.970630	-6.946533	9.751705	-1.321817	0.990564	-0.068912	-0.000000	-0.000000	0.000000
0.360000	-15.711018	-2.323571	2.872141	30.444471	-0.708649	-7.918409	-42.574922	3.589432	6.312798	-0.902241	-8.038600	-6.934860	9.872063	-1.318503	0.990434	-0.069131	-0.000000	-0.000000	0.000000
0.370000	-15.771094	-2.415277	2.835232	31.264569	-0.783711	-8.151406	-42.290366	3.085514	6.102044	-0.974741	-8.013149	-6.910905	9.944517	-1.315047	0.990238	-0.069282	-0.000000	-0.000000	0.000000
0.380000	-15.822957	-2.506550	2.778373	32.027561	-0.844367	-8.266898	-41.749497	2.690831	5.881736	-1.052812	-7.888942	-6.874496	9.959029	-1.311473	0.989950	-0.069349	-0.000000	-0.000000	0.000000
0.390000	-15.846093	-2.588035	2.705889	32.703202	-0.893498	-8.243958	-40.959114	2.472557	5.634083	-1.125795	-7.672776	-6.824483	9.915010	-1.307807	0.989538	-0.069320	-0.000000	-0.000000	0.000000
0.400000	-15.826975	-2.647035	2.628106	33.267829	-0.940631	-8.076638	-39.923318	2.476616	5.344162	-1.179335	-7.388372	-6.757548	9.821468	-1.304055	0.988970	-0.069184	-0.000000	-0.000000	0.000000
0.410000	-15.767869	-2.673886	2.556973	33.720514	-0.995382	-7.778643	-38.651320	2.714094	5.008745	-1.203510	-7.069931	-6.667763	9.693702	-1.300205	0.988225	-0.068935	-0.000000	-0.000000	0.000000
0.420000	-15.677002	-2.665327	2.503298	34.076550	-1.063551	-7.383334	-37.161324	3.145948	4.627559	-1.197033	-6.747889	-6.547923	9.549681	-1.296237	0.987291	-0.068572	-0.000000	-0.000000	0.000000
0.430000	-15.560860	-2.624159	2.474943	34.358985	-1.147015	-6.938675	-35.481231	3.683074	4.198380	-1.166045	-6.441374	-6.393169	9.403924	-1.292139	0.986176	-0.068108	-0.000000	-0.000000	0.000000
0.440000	-15.425534	-2.557624	2.475526	34.595877	-1.244400	-6.489623	-33.647410	4.212592	3.721528	-1.121129	-6.160466	-6.205180	9.268485	-1.287909	0.984900	-0.067563	-0.000000	-0.000000	0.000000
0.450000	-15.273622	-2.474177	2.505106	34.811350	-1.352935	-6.050594	-31.701904	4.638438	3.198288	-1.073265	-5.909942	-5.993724	9.166178	-1.283554	0.983490	-0.066958	-0.000000	-0.000000	0.000000
